<?xml version="1.0" standalone="no"?>
<!DOCTYPE svg PUBLIC "-//W3C//DTD SVG 20010904//EN"
 "http://www.w3.org/TR/2001/REC-SVG-20010904/DTD/svg10.dtd">
<svg version="1.0" xmlns="http://www.w3.org/2000/svg"
 width="309.000000pt" height="222.000000pt" viewBox="0 0 309.000000 222.000000"
 preserveAspectRatio="xMidYMid meet">

<g transform="translate(0.000000,222.000000) scale(0.100000,-0.100000)"
fill="#000000" stroke="none">
<path d="M283 1407 c-95 -380 -175 -717 -178 -748 -4 -34 0 -83 9 -130 43
-206 182 -350 391 -404 69 -17 227 -20 372 -5 54 5 240 21 413 35 441 36 902
73 1050 85 69 6 230 19 358 29 129 11 236 21 238 24 3 2 -141 369 -318 815
l-323 810 -60 6 c-33 4 -339 33 -680 66 -341 33 -712 69 -825 80 -113 11 -221
22 -240 25 l-35 5 -172 -693z m277 578 c0 -7 -4 -17 -10 -20 -5 -3 -10 -24
-10 -46 0 -37 -12 -51 -25 -29 -4 6 -11 8 -16 5 -5 -4 -9 1 -9 10 0 9 5 13 10
10 10 -6 14 10 12 53 -1 12 3 22 8 22 5 0 7 7 3 16 -5 14 -3 15 15 5 12 -7 22
-18 22 -26z m540 -10 c272 -14 311 -17 545 -35 228 -19 261 -21 436 -34 97 -8
185 -19 196 -24 21 -12 64 -113 61 -147 -1 -19 20 -71 108 -267 19 -43 34 -80
34 -83 0 -3 8 -25 19 -48 10 -23 47 -112 81 -197 34 -85 68 -168 76 -185 8
-16 61 -151 120 -300 58 -148 110 -280 116 -292 16 -33 -5 -53 -56 -53 -22 0
-142 -9 -266 -20 -334 -29 -702 -58 -905 -69 -99 -6 -265 -16 -370 -22 -104
-6 -248 -13 -320 -14 -71 -2 -130 -4 -130 -5 0 -1 -28 -3 -63 -5 -42 -1 -62 1
-59 9 2 6 12 13 23 16 10 3 20 12 22 20 7 33 33 60 57 60 23 0 25 4 25 43 0
47 26 82 65 89 15 2 21 13 25 42 3 27 11 42 25 47 11 4 14 8 8 8 -25 2 -12 22
17 28 27 5 30 9 30 44 0 32 4 40 23 44 13 4 24 12 25 18 4 49 15 64 52 69 19
2 26 12 35 48 6 26 14 40 18 33 4 -7 5 -24 1 -38 -3 -14 -3 -33 2 -42 4 -10 8
-20 9 -23 9 -37 32 -90 46 -112 11 -14 19 -29 19 -33 0 -4 12 -24 28 -46 26
-37 29 -39 83 -39 53 0 59 3 88 35 17 19 34 35 39 35 4 0 18 -13 30 -30 19
-25 30 -30 64 -30 34 0 46 6 74 35 18 19 37 35 42 35 6 0 33 -12 61 -27 45
-23 66 -27 159 -30 92 -3 113 0 147 17 39 20 39 20 77 0 67 -35 129 -24 194
33 56 49 84 105 83 167 0 50 -28 134 -44 133 -5 -1 -16 4 -24 10 -9 7 -7 0 4
-16 26 -40 22 -125 -7 -184 -13 -25 -30 -48 -38 -51 -8 -3 -17 -8 -20 -11 -9
-10 -74 -33 -95 -33 -64 -1 -65 -1 -65 47 0 28 5 45 12 45 6 0 8 3 5 6 -4 4
-13 1 -22 -6 -13 -11 -15 -7 -15 31 0 47 29 89 61 89 32 0 69 -23 75 -47 10
-40 24 -25 24 26 0 49 -11 70 -48 90 -26 14 -74 15 -105 2 -57 -22 -60 -33
-61 -163 l-1 -120 -48 -5 c-43 -3 -49 -1 -54 17 -4 15 -11 19 -22 15 -9 -4
-41 -9 -71 -11 -50 -4 -60 -2 -98 26 -23 16 -46 30 -52 30 -5 0 -10 6 -10 14
0 8 -5 16 -11 18 -5 2 -12 12 -14 23 -2 11 -4 20 -5 20 -8 0 -8 76 0 106 13
49 87 128 126 135 48 10 98 8 121 -4 31 -17 33 -16 33 26 l0 37 -165 0 -165 0
0 -222 0 -221 -41 -7 c-22 -4 -42 -5 -45 -2 -3 2 -5 70 -6 149 l-2 145 -77 -1
c-111 -2 -118 -11 -90 -108 12 -40 31 -95 42 -121 11 -26 17 -52 14 -57 -7
-12 -75 -13 -91 -2 -20 13 -95 231 -89 259 7 35 23 68 41 85 26 23 118 44 186
44 48 -1 58 2 58 16 0 9 2 23 5 30 5 11 -8 14 -57 15 -35 1 -66 2 -70 2 -5 1
-8 22 -8 49 l0 47 457 -2 c252 -1 451 0 443 3 -8 3 -21 7 -28 10 -10 3 -3 22
24 72 37 63 39 71 38 152 -1 94 -20 152 -68 203 -40 43 -51 22 -15 -29 29 -42
31 -52 32 -135 0 -65 -3 -93 -12 -99 -8 -4 -11 -12 -7 -18 3 -6 1 -14 -6 -19
-8 -4 -26 -23 -41 -41 -15 -19 -27 -30 -27 -27 0 4 -7 1 -16 -6 -21 -17 -132
-18 -142 -2 -4 6 -14 13 -22 15 -45 10 -105 154 -96 229 7 54 10 62 33 99 17
25 19 36 11 41 -7 5 -18 3 -24 -2 -9 -7 -15 -5 -21 6 -7 13 -15 14 -35 6 -14
-5 -29 -7 -33 -3 -4 4 0 -8 10 -27 26 -51 16 -128 -19 -154 -26 -19 -35 -47
-15 -47 6 0 9 -7 5 -15 -3 -8 -1 -15 5 -15 6 0 8 -3 5 -8 -2 -4 6 -30 19 -57
12 -28 21 -54 19 -60 -3 -5 -31 -10 -63 -10 -33 0 -58 1 -56 3 2 2 -10 29 -26
60 -16 31 -29 65 -29 75 0 10 -8 17 -20 17 -32 0 -34 -3 -32 -50 1 -25 0 -58
-3 -75 -5 -30 -5 -30 -62 -27 l-58 4 3 204 c2 180 1 203 -13 198 -8 -3 -16
-11 -16 -18 -1 -6 -2 -15 -4 -21 -1 -5 -3 -18 -3 -28 -2 -17 -8 -18 -52 -12
l-50 7 0 -166 0 -166 -35 -1 c-81 -3 -94 -4 -97 -9 -24 -28 -48 -70 -41 -70 4
-1 -8 -9 -27 -19 -19 -9 -34 -23 -33 -29 2 -7 0 -11 -5 -11 -24 4 -34 -3 -29
-21 3 -11 1 -23 -4 -26 -5 -3 -9 -14 -9 -25 0 -10 -7 -19 -15 -19 -8 0 -15 8
-15 17 0 23 -89 -65 -90 -88 0 -9 -11 -24 -25 -33 -15 -10 -25 -26 -25 -41 0
-17 -4 -23 -14 -19 -14 5 -43 -32 -38 -49 1 -5 -2 -6 -7 -3 -11 7 -21 -17 -21
-55 0 -26 -3 -30 -22 -27 -18 2 -24 -3 -26 -20 -2 -13 -10 -26 -18 -29 -8 -3
-14 -11 -14 -18 0 -8 -7 -21 -17 -30 -12 -13 -13 -19 -4 -25 9 -5 7 -9 -6 -12
-29 -8 -122 -241 -116 -290 5 -33 3 -38 -15 -38 -12 0 -23 -4 -26 -9 -10 -15
-105 12 -174 49 -84 44 -157 128 -200 230 -32 75 -41 182 -21 270 5 25 10 51
11 58 1 6 5 12 10 12 4 0 8 15 8 34 0 19 5 38 10 41 6 3 10 15 10 25 0 37 22
121 35 134 8 7 13 31 13 52 -2 41 32 164 45 164 4 0 7 -20 7 -45 0 -25 5 -45
10 -45 6 0 10 -8 10 -18 0 -9 12 -30 27 -46 25 -27 29 -28 87 -22 51 5 66 11
88 36 34 37 57 38 88 5 31 -33 76 -40 146 -23 49 13 65 13 103 1 24 -7 59 -13
77 -13 39 0 141 43 165 69 49 52 64 143 33 202 -17 34 -16 70 3 76 7 3 24 -7
39 -22 23 -23 26 -32 21 -73 -6 -51 2 -142 12 -142 3 0 6 72 6 160 l0 160 -47
0 c-47 0 -48 0 -48 33 0 30 -3 33 -45 43 -25 6 -45 9 -45 7 0 -2 14 -17 30
-33 17 -17 28 -30 24 -30 -3 0 -1 -7 6 -15 13 -15 12 -15 -32 -29 -7 -2 -16
-3 -19 -2 -3 0 -14 -5 -23 -13 -13 -11 -20 -11 -28 -3 -7 7 -8 12 -3 12 4 0 0
9 -10 20 -18 20 -60 26 -81 12 -16 -11 -13 -41 5 -46 17 -5 81 -21 122 -30 34
-7 80 -68 84 -109 2 -30 -30 -108 -48 -115 -4 -2 -14 -10 -22 -19 -8 -8 -15
-12 -15 -10 0 3 -23 -1 -50 -8 -36 -9 -61 -11 -88 -4 -55 15 -92 30 -92 39 0
5 -7 15 -15 23 -7 8 -17 26 -20 39 -7 28 4 36 67 45 29 3 38 1 38 -10 0 -7 15
-22 34 -32 32 -18 36 -18 60 -2 14 10 26 24 26 32 0 18 -40 35 -87 37 -18 1
-38 7 -44 15 -6 7 -16 13 -22 13 -29 0 -75 96 -61 128 4 9 8 22 10 29 1 7 14
24 28 38 14 14 26 28 26 31 0 10 -59 -37 -74 -58 -13 -18 -17 -19 -29 -7 -7 8
-17 26 -20 41 -7 26 -35 49 -67 54 -8 2 -31 8 -52 15 -29 9 -37 17 -40 41 -3
17 0 31 6 33 44 12 46 15 46 55 0 33 3 40 20 40 13 0 20 7 20 20 0 13 7 20 20
20 17 0 20 7 20 45 0 41 2 45 25 45 20 0 25 5 25 26 0 25 2 25 40 19 42 -7 59
10 18 18 -41 8 -6 7 272 -8z m-641 -377 c1 -12 -6 -18 -19 -18 -15 0 -19 6
-18 24 1 14 6 22 10 20 4 -3 8 3 9 13 0 16 1 16 9 -2 5 -11 9 -28 9 -37z m212
-28 c2 -12 5 -27 9 -37 2 -5 4 -12 5 -18 6 -35 29 -102 40 -118 8 -11 11 -25
9 -32 -3 -7 -1 -16 5 -19 6 -4 8 -13 4 -21 -3 -8 0 -15 7 -15 6 0 9 -4 5 -9
-5 -9 16 -77 36 -114 14 -26 8 -30 -60 -32 -53 -2 -60 0 -66 19 -4 11 -8 24
-10 29 -1 4 -3 13 -4 21 -1 9 -20 14 -68 15 -37 1 -64 -1 -60 -5 3 -4 0 -21
-8 -39 -7 -19 -10 -37 -7 -41 4 -4 -1 -4 -11 -1 -10 4 -36 7 -57 7 -25 0 -37
4 -36 13 3 18 65 212 91 287 13 36 26 77 29 93 6 26 8 27 76 27 39 0 71 -4 71
-10z m-221 -99 c0 -6 -4 -13 -10 -16 -5 -3 -10 1 -10 9 0 9 5 16 10 16 6 0 10
-4 10 -9z m1041 -98 c8 -22 6 -30 -12 -50 -31 -32 -49 -30 -49 8 0 64 41 93
61 42z m-1084 -25 c-3 -8 -6 -5 -6 6 -1 11 2 17 5 13 3 -3 4 -12 1 -19z m-41
-17 c-3 -5 1 -12 10 -15 13 -5 14 -9 4 -21 -16 -20 -40 -19 -40 1 0 9 5 12 12
8 7 -5 9 -2 5 8 -3 9 -3 19 0 22 9 9 15 7 9 -3z m1111 -672 c1 -35 -1 -56 -4
-46 -2 9 -8 17 -13 17 -12 0 -24 65 -16 86 3 9 12 14 19 12 8 -3 13 -28 14
-69z"/>
<path d="M961 1596 c2 -2 24 -6 49 -9 30 -4 38 -3 25 3 -19 8 -83 14 -74 6z"/>
<path d="M1236 1588 c3 -4 15 -8 26 -8 12 0 18 3 14 7 -10 10 -46 11 -40 1z"/>
<path d="M1563 1583 c31 -2 83 -2 115 0 31 2 5 3 -58 3 -63 0 -89 -1 -57 -3z"/>
<path d="M1748 1583 c7 -3 16 -2 19 1 4 3 -2 6 -13 5 -11 0 -14 -3 -6 -6z"/>
<path d="M1968 1573 c-10 -2 -18 -9 -18 -14 0 -6 8 -5 20 1 11 6 20 13 20 15
0 3 -1 4 -2 4 -2 -1 -11 -3 -20 -6z"/>
<path d="M1640 1451 l0 -41 44 0 c50 0 66 14 57 50 -6 22 -13 25 -54 28 l-47
3 0 -40z"/>
<path d="M2044 1465 c-9 -14 -14 -31 -11 -39 3 -8 3 -17 -1 -21 -8 -8 -9 -75
-2 -75 3 0 7 -12 8 -27 2 -32 26 -53 58 -53 20 0 57 30 38 30 -5 0 -3 4 4 9
20 12 24 108 6 142 -8 16 -12 29 -8 29 4 0 1 7 -6 15 -20 24 -67 19 -86 -10z"/>
<path d="M2298 1034 l-3 -38 -120 1 -120 2 -1 -40 c0 -37 2 -40 20 -33 12 5
55 8 96 9 63 0 80 -4 108 -23 l32 -23 0 23 c1 13 7 34 15 48 20 35 18 63 -4
89 l-20 23 -3 -38z"/>
<path d="M1796 820 c-29 -26 -34 -36 -32 -70 3 -49 29 -76 82 -85 l39 -7 -30
25 c-25 21 -28 27 -16 41 17 21 60 21 68 0 3 -9 1 -25 -6 -35 -6 -11 -7 -19
-2 -19 15 0 51 65 51 91 -1 29 -26 60 -63 77 -41 18 -52 15 -91 -18z"/>
<path d="M1101 684 c0 -11 3 -14 6 -6 3 7 2 16 -1 19 -3 4 -6 -2 -5 -13z"/>
<path d="M2168 643 c7 -3 16 -2 19 1 4 3 -2 6 -13 5 -11 0 -14 -3 -6 -6z"/>
<path d="M579 1397 c0 -1 -3 -16 -5 -34 -4 -27 -2 -31 14 -26 23 6 27 49 6 57
-8 3 -14 4 -15 3z"/>
</g>
</svg>
